name Walk9.mot
datacolumns 19
datarows 25
range 3.97000000 4.09000000
endheader

                time	   L_ground_force_vx	   L_ground_force_vy	   L_ground_force_vz	   L_ground_force_px	   L_ground_force_py	   L_ground_force_pz	   R_ground_force_vx	   R_ground_force_vy	   R_ground_force_vz	   R_ground_force_px	   R_ground_force_py	   R_ground_force_pz	   L_ground_torque_x	   L_ground_torque_y	   L_ground_torque_z	   R_ground_torque_x	   R_ground_torque_y	   R_ground_torque_z	
          3.97000000	          0.04693921	          0.11298989	         -0.00514480	         -0.00011888	          0.00000000	         -0.00006165	        -28.65121858	        669.56093654	        -48.37064445	          0.46340261	          0.00000000	          0.10286657	          0.00000000	          0.00003616	          0.00000000	          0.00000000	          4.70451490	          0.00000000	
          3.97500000	          0.03280725	          0.08125210	         -0.00537665	         -0.00010492	          0.00000000	         -0.00005543	        -27.63321871	        662.19731925	        -47.77571941	          0.46627072	          0.00000000	          0.10286174	          0.00000000	         -0.00005085	          0.00000000	          0.00000000	          4.45817631	          0.00000000	
          3.98000000	          0.02115004	          0.05447322	         -0.00510010	         -0.00008767	          0.00000000	         -0.00004706	        -26.71676796	        655.63621447	        -47.21349395	          0.46914296	          0.00000000	          0.10285259	          0.00000000	         -0.00010262	          0.00000000	          0.00000000	          4.23268701	          0.00000000	
          3.98500000	          0.01200179	          0.03299227	         -0.00451940	         -0.00006967	          0.00000000	         -0.00003797	        -25.88770937	        649.90765427	        -46.67186846	          0.47200710	          0.00000000	          0.10283910	          0.00000000	         -0.00012771	          0.00000000	          0.00000000	          4.02745099	          0.00000000	
          3.99000000	          0.00518599	          0.01660766	         -0.00378958	         -0.00005262	          0.00000000	         -0.00002914	        -25.12969629	        645.02744694	        -46.14111389	          0.47485141	          0.00000000	          0.10282230	          0.00000000	         -0.00013369	          0.00000000	          0.00000000	          3.84155295	          0.00000000	
          3.99500000	          0.00040500	          0.00478706	         -0.00302185	         -0.00003753	          0.00000000	         -0.00002117	        -24.42431380	        640.99742253	        -45.61611475	          0.47766611	          0.00000000	          0.10280369	          0.00000000	         -0.00012696	          0.00000000	          0.00000000	          3.67353493	          0.00000000	
          4.00000000	         -0.00269298	         -0.00317186	         -0.00229053	         -0.00002488	          0.00000000	         -0.00001438	        -23.75060895	        637.80748908	        -45.09727842	          0.48044461	          0.00000000	          0.10278341	          0.00000000	         -0.00011260	          0.00000000	          0.00000000	          3.52083306	          0.00000000	
          4.00500000	         -0.00446668	         -0.00802490	         -0.00164039	         -0.00001480	          0.00000000	         -0.00000889	        -23.08625695	        635.44063522	        -44.58933482	          0.48318295	          0.00000000	          0.10276151	          0.00000000	         -0.00009449	          0.00000000	          0.00000000	          3.37979305	          0.00000000	
          4.01000000	         -0.00525085	         -0.01050239	         -0.00109374	         -0.00000716	          0.00000000	         -0.00000467	        -22.40908482	        633.87338492	        -44.09970467	          0.48588005	          0.00000000	          0.10273710	          0.00000000	         -0.00007540	          0.00000000	          0.00000000	          3.24610927	          0.00000000	
          4.01500000	         -0.00533845	         -0.01126055	         -0.00065668	         -0.00000170	          0.00000000	         -0.00000159	        -21.69958940	        633.08075094	        -43.63712236	          0.48853849	          0.00000000	          0.10270903	          0.00000000	         -0.00005719	          0.00000000	          0.00000000	          3.11556600	          0.00000000	
          4.02000000	         -0.00497242	         -0.01085616	         -0.00032446	          0.00000193	          0.00000000	          0.00000051	        -20.94290253	        633.03780420	        -43.21081880	          0.49116169	          0.00000000	          0.10267590	          0.00000000	         -0.00004100	          0.00000000	          0.00000000	          2.98412610	          0.00000000	
          4.02500000	         -0.00434443	         -0.00973825	         -0.00008576	          0.00000411	          0.00000000	          0.00000181	        -20.12842484	        633.71837916	        -42.83106724	          0.49375076	          0.00000000	          0.10263546	          0.00000000	         -0.00002737	          0.00000000	          0.00000000	          2.84783638	          0.00000000	
          4.03000000	         -0.00359812	         -0.00825117	          0.00007410	          0.00000519	          0.00000000	          0.00000251	        -19.25064717	        635.09892387	        -42.50894484	          0.49630442	          0.00000000	          0.10258722	          0.00000000	         -0.00001646	          0.00000000	          0.00000000	          2.70318668	          0.00000000	
          4.03500000	         -0.00283496	         -0.00664497	          0.00017075	          0.00000546	          0.00000000	          0.00000275	        -18.30817704	        637.15674098	        -42.25633254	          0.49882147	          0.00000000	          0.10253247	          0.00000000	         -0.00000817	          0.00000000	          0.00000000	          2.54752022	          0.00000000	
          4.04000000	         -0.00212135	         -0.00508941	          0.00021923	          0.00000521	          0.00000000	          0.00000269	        -17.30349155	        639.87012592	        -42.08582532	          0.50130159	          0.00000000	          0.10247391	          0.00000000	         -0.00000220	          0.00000000	          0.00000000	          2.37883165	          0.00000000	
          4.04500000	         -0.00149595	         -0.00368935	          0.00023298	          0.00000463	          0.00000000	          0.00000244	        -16.24376818	        643.22087078	        -42.01036168	          0.50374512	          0.00000000	          0.10241459	          0.00000000	          0.00000180	          0.00000000	          0.00000000	          2.19507969	          0.00000000	
          4.05000000	         -0.00097658	         -0.00249973	          0.00022337	          0.00000390	          0.00000000	          0.00000209	        -15.13912801	        647.19223621	        -42.04253204	          0.50615387	          0.00000000	          0.10235555	          0.00000000	          0.00000422	          0.00000000	          0.00000000	          1.99426682	          0.00000000	
          4.05500000	         -0.00056629	         -0.00153916	          0.00019954	          0.00000312	          0.00000000	          0.00000170	        -14.00137667	        651.76965533	        -42.19309951	          0.50852957	          0.00000000	          0.10229570	          0.00000000	          0.00000544	          0.00000000	          0.00000000	          1.77455780	          0.00000000	
          4.06000000	         -0.00025839	         -0.00080143	          0.00016848	          0.00000237	          0.00000000	          0.00000131	        -12.84216269	        656.94176996	        -42.47033119	          0.51087486	          0.00000000	          0.10223203	          0.00000000	          0.00000579	          0.00000000	          0.00000000	          1.53390329	          0.00000000	
          4.06500000	         -0.00004050	         -0.00026496	          0.00013524	          0.00000171	          0.00000000	          0.00000096	        -11.67070450	        662.70015719	        -42.87882047	          0.51319146	          0.00000000	          0.10216241	          0.00000000	          0.00000556	          0.00000000	          0.00000000	          1.27040538	          0.00000000	
          4.07000000	          0.00010243	          0.00010003	          0.00010322	          0.00000114	          0.00000000	          0.00000066	        -10.49237058	        669.03674329	        -43.41745763	          0.51547743	          0.00000000	          0.10208466	          0.00000000	          0.00000497	          0.00000000	          0.00000000	          0.98253640	          0.00000000	
          4.07500000	          0.00018599	          0.00032618	          0.00007453	          0.00000069	          0.00000000	          0.00000041	         -9.30856291	        675.94405617	        -44.07851740	          0.51772509	          0.00000000	          0.10199453	          0.00000000	          0.00000420	          0.00000000	          0.00000000	          0.66906671	          0.00000000	
          4.08000000	          0.00022486	          0.00044540	          0.00005023	          0.00000035	          0.00000000	          0.00000022	         -8.11687077	        683.41419710	        -44.84606430	          0.51992270	          0.00000000	          0.10188755	          0.00000000	          0.00000337	          0.00000000	          0.00000000	          0.32909150	          0.00000000	
          4.08500000	          0.00023201	          0.00048664	          0.00003068	          0.00000010	          0.00000000	          0.00000008	         -6.91023824	        691.43601937	        -45.69451713	          0.52205666	          0.00000000	          0.10176064	          0.00000000	          0.00000258	          0.00000000	          0.00000000	         -0.03760433	          0.00000000	
          4.09000000	          0.00021824	          0.00047459	          0.00001572	         -0.00000007	          0.00000000	         -0.00000001	         -5.67674020	        699.99176325	        -46.58727148	          0.52410992	          0.00000000	          0.10161262	          0.00000000	          0.00000186	          0.00000000	          0.00000000	         -0.42963254	          0.00000000	
